<?xml version="1.0" standalone="no"?>
<!DOCTYPE svg PUBLIC "-//W3C//DTD SVG 20010904//EN"
 "http://www.w3.org/TR/2001/REC-SVG-20010904/DTD/svg10.dtd">
<svg version="1.0" xmlns="http://www.w3.org/2000/svg"
 width="700.000000pt" height="700.000000pt" viewBox="0 0 700.000000 700.000000"
 preserveAspectRatio="xMidYMid meet">
<metadata>
Created by potrace 1.11, written by Peter Selinger 2001-2013
</metadata>
<g transform="translate(0.000000,700.000000) scale(0.100000,-0.100000)"
fill="#000000" stroke="none">
<path d="M0 3500 l0 -3500 3500 0 3500 0 0 3500 0 3500 -3500 0 -3500 0 0
-3500z m4427 388 c-3 -1207 -3 -1224 -24 -1309 -88 -356 -294 -572 -631 -660
-100 -27 -344 -37 -462 -20 -236 35 -442 143 -634 333 -105 104 -108 108 -94
130 8 13 57 89 108 170 l93 148 91 -88 c191 -184 387 -272 605 -272 166 0 270
40 365 140 63 66 90 114 119 218 21 76 22 87 25 1050 l3 972 -566 0 -565 0 0
205 0 205 785 0 786 0 -4 -1222z"/>
</g>
</svg>
